<svg width="164" height="23" viewBox="0 0 164 23" fill="none" xmlns="http://www.w3.org/2000/svg">
<path d="M161 0H143.4C142.075 0 141 1.07452 141 2.4V20C141 21.3255 142.075 22.4 143.4 22.4H150.262V14.7845H147.113V11.2H150.262V8.468C150.262 5.3605 152.113 3.644 154.946 3.644C156.303 3.644 157.722 3.886 157.722 3.886V6.936H156.158C154.618 6.936 154.137 7.892 154.137 8.8725V11.2H157.576L157.027 14.7845H154.137V22.4H161C162.325 22.4 163.4 21.3255 163.4 20V2.4C163.4 1.07452 162.325 0 161 0V0Z" fill="#342941"/>
<path fill-rule="evenodd" clip-rule="evenodd" d="M114 0H96.4C95.0745 0 94 1.07452 94 2.4V20C94 21.3255 95.0745 22.4 96.4 22.4H114C115.325 22.4 116.4 21.3255 116.4 20V2.4C116.4 1.07452 115.325 0 114 0ZM109.915 4.9625C110.611 5.23694 111.161 5.7875 111.436 6.483L111.438 6.4835C111.796 7.38743 111.776 9.35555 111.763 10.6315L111.763 10.6322C111.761 10.843 111.759 11.0349 111.759 11.2C111.759 11.3651 111.761 11.5572 111.763 11.7682V11.7683V11.7684V11.7685V11.7686C111.776 13.0452 111.796 15.0155 111.438 15.9165C111.163 16.612 110.613 17.1626 109.917 17.437C109.014 17.7955 107.049 17.7756 105.773 17.7626C105.561 17.7605 105.368 17.7585 105.202 17.7585C105.039 17.7585 104.85 17.7603 104.643 17.7623C103.366 17.7746 101.39 17.7936 100.486 17.437C99.791 17.1626 99.2404 16.612 98.966 15.9165C98.6078 15.0093 98.6266 13.0299 98.6388 11.7543C98.6407 11.5486 98.6425 11.3612 98.6425 11.1995C98.6425 11.0374 98.6407 10.8492 98.6387 10.6427C98.6266 9.3665 98.6077 7.38674 98.964 6.483C99.2384 5.7875 99.789 5.23694 100.484 4.9625C101.388 4.60402 103.353 4.62395 104.629 4.63689H104.629H104.629H104.629H104.629C104.841 4.63904 105.034 4.641 105.2 4.641C105.363 4.641 105.551 4.63918 105.759 4.63719H105.759H105.759H105.759H105.759C107.035 4.62492 109.012 4.60592 109.915 4.9625ZM102.534 11.2007C102.534 9.72785 103.727 8.53355 105.2 8.533C106.673 8.53355 107.867 9.72712 107.868 11.2C107.868 12.6728 106.674 13.8668 105.201 13.867C103.729 13.8672 102.534 12.6735 102.534 11.2007ZM105.2 15.3C102.936 15.3 101.1 13.4644 101.1 11.2C101.1 8.93563 102.936 7.1 105.2 7.1C107.464 7.1 109.3 8.93563 109.3 11.2C109.301 12.2878 108.87 13.3314 108.101 14.1006C107.331 14.8698 106.288 15.3013 105.2 15.3ZM108.584 7.29457C108.733 7.65216 109.082 7.8852 109.469 7.885L109.471 7.887C109.725 7.88687 109.968 7.78565 110.147 7.6057C110.326 7.42575 110.427 7.18189 110.425 6.928C110.425 6.54088 110.192 6.1919 109.835 6.0438C109.477 5.8957 109.065 5.97767 108.792 6.25148C108.518 6.52528 108.436 6.93698 108.584 7.29457ZM111.851 17.85C112.787 16.917 113.08 15.7815 113.144 14.5C113.219 13.178 113.219 9.222 113.144 7.906C113.083 6.6245 112.785 5.4885 111.851 4.5535C110.918 3.6185 109.783 3.3255 108.502 3.261C107.181 3.1865 103.222 3.1865 101.902 3.261C100.625 3.322 99.4905 3.617 98.5515 4.55C97.6125 5.483 97.3235 6.6185 97.259 7.9C97.1845 9.2195 97.1845 13.179 97.259 14.5C97.32 15.779 97.6145 16.915 98.5515 17.85C99.4885 18.785 100.62 19.078 101.902 19.1425C103.222 19.217 107.181 19.217 108.502 19.1425C109.781 19.0815 110.916 18.783 111.851 17.85Z" fill="#342941"/>
<path fill-rule="evenodd" clip-rule="evenodd" d="M49.4 0H67C68.325 0 69.4 1.075 69.4 2.4V20C69.4 21.325 68.325 22.4 67 22.4H49.4C48.075 22.4 47 21.325 47 20V2.4C47 1.075 48.075 0 49.4 0ZM64.565 8.365C64.565 8.225 64.565 8.08 64.555 7.94C65.195 7.475 65.755 6.895 66.2 6.24C65.61 6.495 64.97 6.68 64.31 6.75C64.99 6.345 65.505 5.705 65.75 4.945C65.12 5.32 64.41 5.595 63.67 5.735C63.07 5.095 62.22 4.7 61.275 4.7C59.275 4.7 57.61 6.505 58.075 8.73C55.355 8.59 52.93 7.29 51.315 5.3C51.03 5.785 50.87 6.345 50.87 6.955C50.8682 8.05222 51.4164 9.07732 52.33 9.685C51.795 9.665 51.285 9.515 50.85 9.27V9.31C50.85 10.905 51.975 12.225 53.475 12.53C52.955 12.665 52.5 12.665 51.995 12.59C52.41 13.89 53.62 14.835 55.06 14.865C53.935 15.745 52.525 16.265 50.99 16.265C50.72 16.265 50.465 16.255 50.2 16.225C51.65 17.155 53.375 17.695 55.235 17.695C61.265 17.695 64.565 12.7 64.565 8.365Z" fill="#342941"/>
<path fill-rule="evenodd" clip-rule="evenodd" d="M22.4 2.4V20C22.4 21.325 21.325 22.4 20 22.4H2.4C1.075 22.4 0 21.325 0 20V2.4C0 1.075 1.075 0 2.4 0H20C21.325 0 22.4 1.075 22.4 2.4ZM9.34 8.505L14.1 11.21L9.34 13.915V8.505ZM19.92 6.805C20.3 8.235 20.3 11.215 20.3 11.215C20.3 11.215 20.3 14.195 19.92 15.62C19.71 16.41 19.095 17.005 18.31 17.215C16.895 17.6 11.2 17.6 11.2 17.6C11.2 17.6 5.505 17.6 4.09 17.22C3.305 17.01 2.69 16.415 2.48 15.625C2.1 14.195 2.1 11.215 2.1 11.215C2.1 11.215 2.1 8.23 2.48 6.805C2.69 6.015 3.305 5.395 4.09 5.185C5.505 4.8 11.2 4.8 11.2 4.8C11.2 4.8 16.895 4.8 18.31 5.185C19.095 5.395 19.71 6.015 19.92 6.805Z" fill="#342941"/>
</svg>
