<?xml version="1.0" encoding="utf-8"?>
<!-- Generator: Adobe Illustrator 27.5.0, SVG Export Plug-In . SVG Version: 6.00 Build 0)  -->
<svg version="1.1"
	 id="svg2" xmlns:inkscape="http://www.inkscape.org/namespaces/inkscape" xmlns:svg="http://www.w3.org/2000/svg" xmlns:cc="http://creativecommons.org/ns#" xmlns:sodipodi="http://sodipodi.sourceforge.net/DTD/sodipodi-0.dtd" xmlns:rdf="http://www.w3.org/1999/02/22-rdf-syntax-ns#" xmlns:dc="http://purl.org/dc/elements/1.1/"
	 xmlns="http://www.w3.org/2000/svg" xmlns:xlink="http://www.w3.org/1999/xlink" x="0px" y="0px" viewBox="0 0 540.7 76.7"
	 style="enable-background:new 0 0 540.7 76.7;" xml:space="preserve">
<style type="text/css">
	.st0{fill:#FFFFFF;}
	.st1{clip-path:url(#SVGID_00000114756991821539091630000008120122310153110202_);}
</style>
<sodipodi:namedview  bordercolor="#666666" borderopacity="1.0" fit-margin-bottom="0" fit-margin-left="0" fit-margin-right="0" fit-margin-top="0" id="base" inkscape:current-layer="layer1" inkscape:cx="262.27007" inkscape:cy="39.527673" inkscape:document-units="px" inkscape:pageopacity="0.0" inkscape:pageshadow="2" inkscape:window-height="706" inkscape:window-maximized="1" inkscape:window-width="1366" inkscape:window-x="-8" inkscape:window-y="-8" inkscape:zoom="1.4" pagecolor="#ffffff" showgrid="false">
	</sodipodi:namedview>
<g id="layer1" transform="translate(-161.29331,-985.67882)" inkscape:groupmode="layer" inkscape:label="Layer 1">
	<g id="g10" transform="matrix(2.2381056,0,0,-2.2381056,155.79858,1086.2886)">
		<g id="g12" transform="scale(0.1,0.1)">
			<path id="path14" inkscape:connector-curvature="0" class="st0" d="M1536.2,150.9c45,0,58.9,31,68.3,68.3h-21.1
				c-29.2,0-77.7-5-77.7-44C1505.6,159,1520.9,150.9,1536.2,150.9 M1595.1,147.8h-0.9c-20.7-26.1-41.3-40.9-74.6-40.9
				c-41.8,0-71.4,23.4-71.4,66c0,76.4,85.4,82.3,142,82.3h21.1c1.8,6.3,1.8,13,1.8,19.8c0,23.4-25.2,30.1-46.3,30.1
				c-26.5,0-52.1-6.7-75.9-18l8.6,48.1c25.6,9,51.7,13.9,78.6,13.9c46.3,0,89.9-17.1,89.9-71.4c0-31-22.9-121.8-28.3-165.4h-50.8
				L1595.1,147.8"/>
			<path id="path16" inkscape:connector-curvature="0" class="st0" d="M34,343.9h43.6l10.3,47.6l64.7,21.1l-14.8-68.8h53.9l-9.4-44
				h-53.9l-22-101.1c-1.3-5.4-2.7-13.5-2.7-22.4c0-13.9,9.4-22.5,22.9-22.5c10.8,0,21.6,2.2,29.2,5.4l-10.3-46.7
				c-10.3-2.2-22-5.4-32.4-5.4c-40.9,0-69.7,16.2-69.7,60.7c0,18,3.6,35.5,7.6,53.9l17.1,78.2H24.6L34,343.9"/>
			<path id="path18" inkscape:connector-curvature="0" class="st0" d="M238.5,443.7h60.2l-12.6-57.5h-60.2
				C225.9,386.2,238.5,443.7,238.5,443.7z M216.4,343.9h60.2l-49.4-231.4H167L216.4,343.9"/>
			<path id="path20" inkscape:connector-curvature="0" class="st0" d="M458.5,290.9c-11.7,7.6-27.4,11.7-44,11.7
				c-48.1,0-75-44.9-75-88.5c0-30.1,9.9-60.2,51.2-60.2c14.8,0,33.3,4,49,11.7l-6.8-47.7c-18.4-9-38.2-10.8-58-10.8
				c-59.8,0-98.4,40-98.4,99.8c0,80.9,53.5,142.4,136.6,142.4c22.5,0,44.1-4,60.2-9L458.5,290.9"/>
			<path id="path22" inkscape:connector-curvature="0" class="st0" d="M524.6,449.5h60.2l-40-189.6h0.9l84,84h78.2l-111-105.6
				l69.6-125.8h-67.9l-59.8,122.7H538L512,112.5h-58.9L524.6,449.5"/>
			<path id="path24" inkscape:connector-curvature="0" class="st0" d="M925,343.9h43.6l10.3,47.6l64.7,21.1l-14.8-68.8h53.9l-9.4-44
				h-53.9l-22-101.1c-1.3-5.4-2.7-13.5-2.7-22.4c0-13.9,9.4-22.5,22.9-22.5c10.8,0,21.6,2.2,29.2,5.4l-10.3-46.7
				c-10.3-2.2-22-5.4-32.4-5.4c-40.9,0-69.7,16.2-69.7,60.7c0,18,3.6,35.5,7.7,53.9l17.1,78.2h-43.6L925,343.9"/>
			<path id="path26" inkscape:connector-curvature="0" class="st0" d="M904.8,261.3c0,58.9-37.7,88.1-94.8,88.1
				c-75.9,0-131.7-69.2-131.7-141.1c0-68.8,44.9-101.1,111.5-101.1c24.7,0,50.3,5.9,73.7,13l7.6,47.7c-22.5-10.4-46.3-16.7-71-16.7
				c-38.5,0-61,13.7-63.9,50.1h0c-0.1,2.1-0.3,4.2-0.3,6.4c0,0.4,0,0.9,0,1.3c0,0.2,0,0.4,0,0.7h0c0.3,15.8,3.7,31.5,9.8,45.9
				c11.6,29.4,27.9,49.8,63.4,49.8c25.1,0,38.2-13.9,38.2-38.6c0-5.4-0.5-10.3-1.3-15.7h-82.4c-5.3-18.2-6.3-30.4-6.4-41.4H899
				C902.6,226.7,904.8,243.7,904.8,261.3"/>
			<path id="path28" inkscape:connector-curvature="0" class="st0" d="M1108.7,318.3c1.8,9,3.6,18.4,4.9,25.6h56.2l-5.4-31h0.9
				c16.2,23.8,42.7,36.4,71,36.4c27.4,0,55.7-16.2,58.9-44h0.9c15.3,30.1,49,44,81.3,44c34.6,0,64.3-28.3,64.3-63.4
				c0-20.7-5.4-44-10.3-62.9l-24.3-110.6h-60.2l24.3,112.8c3.2,13.9,7.6,35.5,7.6,49.4c0,17.1-13,27.9-28.3,27.9
				c-41.8,0-52.1-48.5-59.8-80l-23.8-110.1h-60.2l24.3,112.8c3.2,13.9,7.6,35.5,7.6,49.4c0,17.1-13.1,27.9-28.3,27.9
				c-40.9,0-52.1-49-59.8-80l-23.8-110.1h-60.2L1108.7,318.3"/>
			<path id="path30" inkscape:connector-curvature="0" class="st0" d="M1846.7,296.8c-6.5,3.5-23.1,8.5-40.2,8.5
				c-18,0-40.4-4.9-40.4-23.3c0-29.2,78.2-40,78.2-96.6c0-60.2-52.6-78.2-104.2-78.2c-24.3,0-48.6,3.6-70.6,13.9l13.1,48.1
				c17-9.4,34.1-18,57.5-18c20.2,0,41.3,6.8,41.3,25.6c0,37.3-78.2,40.9-78.2,98.9c0,54.4,52.6,73.7,100.2,73.7
				c22,0,44.5-4,56.4-7.1L1846.7,296.8"/>
			<path id="path32" inkscape:connector-curvature="0" class="st0" d="M1885.2,343.9h43.6l10.3,47.6l64.7,21.1l-14.8-68.8h53.9
				l-9.4-44h-54l-22-101.1c-1.3-5.4-2.7-13.5-2.7-22.4c0-13.9,9.5-22.5,22.9-22.5c10.8,0,21.6,2.2,29.2,5.4l-10.3-46.7
				c-10.3-2.2-22-5.4-32.3-5.4c-40.9,0-69.7,16.2-69.7,60.7c0,18,3.6,35.5,7.7,53.9l17.1,78.2h-43.6L1885.2,343.9"/>
			<path id="path34" inkscape:connector-curvature="0" class="st0" d="M2293.5,312.9c1.8,9.9,3.6,20.2,5.4,31h57.5l-8.1-43.6h0.9
				c10.8,25.2,40.4,49,68.3,49c7.6,0,15.7-0.4,22.9-2.2l-12.6-58.9c-6.7,2.2-15.3,3.6-22.9,3.6c-42.7,0-63.4-38.2-71-75.5
				l-21.6-103.8h-60.2L2293.5,312.9"/>
			<path id="path36" inkscape:connector-curvature="0" class="st0" d="M2251.7,261.3c0,58.9-37.8,88.1-94.8,88.1
				c-75.9,0-131.7-69.2-131.7-141.1c0-68.8,44.9-101.1,111.5-101.1c24.7,0,50.3,5.9,73.7,13l7.6,47.7c-22.5-10.4-46.3-16.7-71-16.7
				c-38.5,0-61,13.7-63.9,50.1h0c-0.1,2.1-0.3,4.2-0.3,6.4c0,0.4,0,0.9,0,1.3c0,0.2,0,0.4,0,0.7h0c0.3,15.8,3.8,31.5,9.8,45.9
				c11.6,29.4,27.9,49.8,63.4,49.8c25.2,0,38.2-13.9,38.2-38.6c0-5.4-0.5-10.3-1.3-15.7h-82.4c-5.4-18.2-6.3-30.4-6.4-41.4h141.8
				C2249.4,226.7,2251.7,243.7,2251.7,261.3"/>
			<g id="g38">
				<g>
					<defs>
						<polygon id="SVGID_1_" points="17.4,77.2 0,0 2288.4,0 2304.5,77.2 						"/>
					</defs>
					<use xlink:href="#SVGID_1_"  style="overflow:visible;fill:#FFFFFF;"/>
					<clipPath id="SVGID_00000052797506020479698840000005938313652719201210_">
						<use xlink:href="#SVGID_1_"  style="overflow:visible;"/>
					</clipPath>
					<g id="g40" style="clip-path:url(#SVGID_00000052797506020479698840000005938313652719201210_);">
						<g id="g46" transform="matrix(2306.4,0,0,79.2,0.00499344,-2.01292)">
						</g>
					</g>
				</g>
			</g>
		</g>
	</g>
</g>
</svg>
