<svg width="61" height="49" viewBox="0 0 61 49" fill="none" xmlns="http://www.w3.org/2000/svg">
<rect width="61" height="49" rx="5" fill="#EE6C4D"/>
<path fill-rule="evenodd" clip-rule="evenodd" d="M38.0117 29.5932L44.8141 36.3956C45.062 36.6435 45.062 37.0442 44.8141 37.2921L44.2921 37.8141C44.0442 38.062 43.6435 38.062 43.3956 37.8141L36.5932 31.0117C36.4772 30.8904 36.4087 30.7322 36.4087 30.5635V30.0256C34.4523 31.8291 31.8421 32.9364 28.9682 32.9364C22.9093 32.9364 18 28.0271 18 21.9682C18 15.9093 22.9093 11 28.9682 11C35.0271 11 39.9364 15.9093 39.9364 21.9682C39.9364 24.8421 38.8291 27.4523 37.0204 29.4087H37.5635C37.7322 29.4087 37.8904 29.472 38.0117 29.5932ZM19.6874 21.9682C19.6874 27.099 23.8374 31.249 28.9682 31.249C34.099 31.249 38.249 27.099 38.249 21.9682C38.249 16.8374 34.099 12.6874 28.9682 12.6874C23.8374 12.6874 19.6874 16.8374 19.6874 21.9682Z" fill="white"/>
<path d="M36.5932 31.0117L35.8706 31.7029L35.8783 31.711L35.8861 31.7188L36.5932 31.0117ZM36.4087 30.0256H37.4087V27.7437L35.7309 29.2904L36.4087 30.0256ZM37.0204 29.4087L36.2861 28.7298L34.7339 30.4087H37.0204V29.4087ZM45.5212 35.6885L38.7188 28.8861L37.3046 30.3003L44.107 37.1027L45.5212 35.6885ZM45.5212 37.9992C46.1596 37.3608 46.1596 36.3269 45.5212 35.6885L44.107 37.1027C43.9643 36.9601 43.9643 36.7277 44.107 36.585L45.5212 37.9992ZM44.9992 38.5212L45.5212 37.9992L44.107 36.585L43.585 37.107L44.9992 38.5212ZM42.6885 38.5212C43.3269 39.1596 44.3608 39.1596 44.9992 38.5212L43.585 37.107C43.7277 36.9643 43.9601 36.9643 44.1027 37.107L42.6885 38.5212ZM35.8861 31.7188L42.6885 38.5212L44.1027 37.107L37.3003 30.3046L35.8861 31.7188ZM35.4087 30.5635C35.4087 31.0093 35.5905 31.4102 35.8706 31.7029L37.3159 30.3205C37.3639 30.3707 37.4087 30.4552 37.4087 30.5635H35.4087ZM35.4087 30.0256V30.5635H37.4087V30.0256H35.4087ZM28.9682 33.9364C32.1045 33.9364 34.9539 32.7268 37.0865 30.7609L35.7309 29.2904C33.9507 30.9314 31.5797 31.9364 28.9682 31.9364V33.9364ZM17 21.9682C17 28.5794 22.357 33.9364 28.9682 33.9364V31.9364C23.4616 31.9364 19 27.4748 19 21.9682H17ZM28.9682 10C22.357 10 17 15.357 17 21.9682H19C19 16.4616 23.4616 12 28.9682 12V10ZM40.9364 21.9682C40.9364 15.357 35.5794 10 28.9682 10V12C34.4748 12 38.9364 16.4616 38.9364 21.9682H40.9364ZM37.7546 30.0875C39.7266 27.9545 40.9364 25.1046 40.9364 21.9682H38.9364C38.9364 24.5796 37.9315 26.9501 36.2861 28.7298L37.7546 30.0875ZM37.5635 28.4087H37.0204V30.4087H37.5635V28.4087ZM38.7188 28.8861C38.4052 28.5725 37.9906 28.4087 37.5635 28.4087V30.4087C37.4739 30.4087 37.3757 30.3714 37.3046 30.3003L38.7188 28.8861ZM28.9682 30.249C24.3897 30.249 20.6874 26.5467 20.6874 21.9682H18.6874C18.6874 27.6513 23.2851 32.249 28.9682 32.249V30.249ZM37.249 21.9682C37.249 26.5467 33.5467 30.249 28.9682 30.249V32.249C34.6513 32.249 39.249 27.6513 39.249 21.9682H37.249ZM28.9682 13.6874C33.5467 13.6874 37.249 17.3897 37.249 21.9682H39.249C39.249 16.2851 34.6513 11.6874 28.9682 11.6874V13.6874ZM20.6874 21.9682C20.6874 17.3897 24.3897 13.6874 28.9682 13.6874V11.6874C23.2851 11.6874 18.6874 16.2851 18.6874 21.9682H20.6874Z" fill="white"/>
</svg>
